<svg xmlns="http://www.w3.org/2000/svg" xmlns:xlink="http://www.w3.org/1999/xlink" viewBox="0 0 24 24">
  <defs>
    <filter id="Path_740" x="-10" y="-6" width="60" height="57.694" filterUnits="userSpaceOnUse">
      <feOffset dy="3" input="SourceAlpha"/>
      <feGaussianBlur stdDeviation="6" result="blur"/>
      <feFlood flood-opacity="0.078"/>
      <feComposite operator="in" in2="blur"/>
      <feComposite in="SourceGraphic"/>
    </filter>
    <clipPath id="clip-path">
      <path id="Path_738" data-name="Path 738" d="M16.88-72.333H27.83a4.38,4.38,0,0,1,4.38,4.381v15.333H12.5V-67.952A4.38,4.38,0,0,1,16.88-72.333Z" transform="translate(-12.5 72.333)" fill="none"/>
    </clipPath>
    <clipPath id="clip-path-2">
      <path id="Path_737" data-name="Path 737" d="M5-50.657H29.637V-73H5Z" transform="translate(-5 73)" fill="none"/>
    </clipPath>
    <clipPath id="clip-path-3">
      <path id="Path_746" data-name="Path 746" d="M5.833-42.333h24v1.32h-24Z" transform="translate(-5.833 42.333)" fill="none"/>
    </clipPath>
    <clipPath id="clip-path-4">
      <path id="Path_745" data-name="Path 745" d="M-1-47.321H27.473V-79H-1Z" transform="translate(1 79)" fill="none"/>
    </clipPath>
    <clipPath id="clip-path-5">
      <path id="Path_749" data-name="Path 749" d="M5.833-49h24v1.98h-24Z" transform="translate(-5.833 49)" fill="none" clip-rule="evenodd"/>
    </clipPath>
    <clipPath id="clip-path-6">
      <path id="Path_748" data-name="Path 748" d="M-1-55.241H27.473V-79H-1Z" transform="translate(1 79)" fill="none"/>
    </clipPath>
    <clipPath id="clip-path-7">
      <path id="Path_754" data-name="Path 754" d="M32.45-59.833a1.215,1.215,0,0,1,1.094.667l.869,1.726,1.942.277a1.206,1.206,0,0,1,.985.814,1.173,1.173,0,0,1-.309,1.226L35.625-53.78l.332,1.9a1.176,1.176,0,0,1-.268.972,1.23,1.23,0,0,1-.934.427,1.245,1.245,0,0,1-.568-.138l-1.737-.9-1.737.9a1.245,1.245,0,0,1-.568.138,1.23,1.23,0,0,1-.934-.427,1.175,1.175,0,0,1-.268-.972l.332-1.9-1.405-1.343a1.173,1.173,0,0,1-.309-1.226,1.206,1.206,0,0,1,.985-.814l1.942-.277.869-1.726A1.215,1.215,0,0,1,32.45-59.833Z" transform="translate(-27.5 59.833)" fill="none" clip-rule="evenodd"/>
    </clipPath>
    <clipPath id="clip-path-8">
      <path id="Path_753" data-name="Path 753" d="M-1-52.6H27.71V-79H-1Z" transform="translate(1 79)" fill="none"/>
    </clipPath>
    <clipPath id="clip-path-9">
      <path id="Path_757" data-name="Path 757" d="M40.817-46.947V-45.7h-1.1v-1.247a1.1,1.1,0,0,1-.55-.953,1.1,1.1,0,0,1,1.1-1.1,1.1,1.1,0,0,1,1.1,1.1A1.1,1.1,0,0,1,40.817-46.947Z" transform="translate(-39.167 49)" fill="none" clip-rule="evenodd"/>
    </clipPath>
    <clipPath id="clip-Artboard_1">
      <rect width="40" height="40"/>
    </clipPath>
  </defs>
  <g id="Artboard_1" data-name="Artboard – 1" clip-path="url(#clip-Artboard_1)">
    <g id="Group_660" data-name="Group 660" transform="translate(-26 -188)">
      <g id="Group_307" data-name="Group 307" transform="translate(134 -4)">
        <g id="Group_2" data-name="Group 2" transform="translate(-108 192)">
          <g transform="matrix(1, 0, 0, 1, -8, -9)" filter="url(#Path_740)">
            <path id="Path_740-2" data-name="Path 740" d="M11.427-72.333H24.239a6.358,6.358,0,0,1,3.362.58,3.954,3.954,0,0,1,1.649,1.64,6.26,6.26,0,0,1,.583,3.342V-53.42a3.13,3.13,0,0,1-.291,1.671,1.977,1.977,0,0,1-.825.82,3.179,3.179,0,0,1-1.681.29H8.63a3.179,3.179,0,0,1-1.681-.29,1.977,1.977,0,0,1-.825-.82,3.13,3.13,0,0,1-.291-1.671V-66.771a6.26,6.26,0,0,1,.583-3.342,3.954,3.954,0,0,1,1.649-1.64A6.358,6.358,0,0,1,11.427-72.333Z" transform="translate(2.17 81.33)" fill="#fff"/>
          </g>
          <path id="Intersection_1" data-name="Intersection 1" d="M2.131,11.549a2.37,2.37,0,0,1-1.015-.262,1.957,1.957,0,0,1-.825-.8A3,3,0,0,1,0,8.851V0H24V8.851a3,3,0,0,1-.291,1.634,1.956,1.956,0,0,1-.825.8,2.37,2.37,0,0,1-1.015.262Z" transform="translate(0 11.134)" fill="#fafafa"/>
          <g id="Group_290" data-name="Group 290" transform="translate(2.31 1.32)" clip-path="url(#clip-path)">
            <g id="Group_289" data-name="Group 289" transform="translate(-2.464 -0.219)" clip-path="url(#clip-path-2)">
              <path id="Path_736" data-name="Path 736" d="M7.5-77.333H30.495v23H7.5Z" transform="translate(-6.679 75.91)" fill="#f7b62d"/>
            </g>
          </g>
          <g id="Group_297" data-name="Group 297" transform="translate(0 11.065)" clip-path="url(#clip-path-3)">
            <g id="Group_296" data-name="Group 296" transform="translate(-2.236 -14.519)" clip-path="url(#clip-path-4)">
              <path id="Path_744" data-name="Path 744" d="M.833-47.333H28.106v5.28H.833Z" transform="translate(-0.233 59.873)" fill="rgba(0,0,0,0.05)"/>
            </g>
          </g>
          <g id="Group_299" data-name="Group 299" transform="translate(0 9.202)" clip-path="url(#clip-path-5)">
            <g id="Group_298" data-name="Group 298" transform="translate(-2.236 -8.91)" clip-path="url(#clip-path-6)">
              <path id="Path_747" data-name="Path 747" d="M.833-54H28.106v4.95H.833Z" transform="translate(-0.233 61.425)" fill="#fff"/>
            </g>
          </g>
          <g id="Group_304" data-name="Group 304" transform="translate(7.05 4.973)" clip-path="url(#clip-path-7)">
            <g id="Group_303" data-name="Group 303" transform="translate(-9.405 -6.325)" clip-path="url(#clip-path-8)">
              <path id="Path_752" data-name="Path 752" d="M22.5-64.833H35.7v12.649H22.5Z" transform="translate(-14.745 69.508)" fill="#fff"/>
            </g>
          </g>
          <g id="Group_306" data-name="Group 306" transform="translate(10.9 8.542)" clip-path="url(#clip-path-9)">
            <g id="Group_305" data-name="Group 305" transform="translate(-13.255 -9.9)" clip-path="url(#clip-path-8)">
              <path id="Path_755" data-name="Path 755" d="M34.167-54h5.5v6.6h-5.5Z" transform="translate(-22.562 62.25)" fill="#eaab2a"/>
            </g>
          </g>
        </g>
      </g>
    </g>
  </g>
</svg>
